# xmcd CD database file
#
# Track frame offsets:
#	150
#	22273
#	42194
#	58270
#	85718
#	112435
#	132070
#	145184
#	164840
#	183426
#	211754
#	235475
#
# Disc length: 4357 seconds
#
# Revision: 2
# Processed by: cddbd v1.5.1PL0 Copyright (c) Steve Scherf et al.
# Submitted via: CDex 1.51
#
DISCID=b411030c
DTITLE=Köster und Hocker - Silbehochzeit (live) CD 2
DYEAR=2005
DGENRE=
TTITLE0=Alley Cat Blues
TTITLE1=Ze vill Jepäck
TTITLE2=Freaks
TTITLE3=Nachtgedanken
TTITLE4=Midnight Radio
TTITLE5=Into the Mystic
TTITLE6=Arche Noah
TTITLE7=Schön dich ze sinn
TTITLE8=Do kanns nix dafür wenn du dräums
TTITLE9=Alles im Griff
TTITLE10=1000 Johr
TTITLE11=Maach op
EXTD=YEAR: 2005
EXTT0=
EXTT1=
EXTT2=
EXTT3=
EXTT4=
EXTT5=
EXTT6=
EXTT7=
EXTT8=
EXTT9=
EXTT10=
EXTT11=
PLAYORDER=
